<?xml version="1.0" standalone="no"?>
<!DOCTYPE svg PUBLIC "-//W3C//DTD SVG 20010904//EN"
 "http://www.w3.org/TR/2001/REC-SVG-20010904/DTD/svg10.dtd">
<svg version="1.0" xmlns="http://www.w3.org/2000/svg"
 width="100.000000pt" height="100.000000pt" viewBox="0 0 100.000000 100.000000"
 preserveAspectRatio="xMidYMid meet">
<metadata>
Created by potrace 1.14, written by Peter Selinger 2001-2017
</metadata>
<g transform="translate(0.000000,100.000000) scale(0.100000,-0.100000)"
fill="#000000" stroke="none">
<path d="M220 515 l0 -325 154 0 c177 0 214 11 290 83 73 70 90 114 90 242 1
97 -2 115 -23 155 -30 58 -101 124 -158 150 -39 17 -67 20 -199 20 l-154 0 0
-325z m310 188 c51 -30 65 -62 69 -156 4 -119 -3 -147 -47 -194 -33 -35 -46
-41 -96 -47 -88 -11 -86 -15 -86 208 0 140 3 195 13 205 15 16 111 6 147 -16z"/>
</g>
</svg>
