<svg xmlns="http://www.w3.org/2000/svg" width="133.333" height="133.333" preserveAspectRatio="xMidYMid meet" version="1.0" viewBox="0 0 100 100"><metadata>Created by potrace 1.14, written by Peter Selinger 2001-2017</metadata><g fill="#000" stroke="none"><path d="M220 515 l0 -325 154 0 c177 0 214 11 290 83 73 70 90 114 90 242 1 97 -2 115 -23 155 -30 58 -101 124 -158 150 -39 17 -67 20 -199 20 l-154 0 0 -325z m310 188 c51 -30 65 -62 69 -156 4 -119 -3 -147 -47 -194 -33 -35 -46 -41 -96 -47 -88 -11 -86 -15 -86 208 0 140 3 195 13 205 15 16 111 6 147 -16z" transform="translate(0.000000,100.000000) scale(0.100000,-0.100000)"/></g></svg>